# xmcd CD database file
#
# Track frame offsets:
#	150
#	18180
#	35275
#	54950
#	72902
#	89965
#
# Disc length: 1460 seconds
#
# Revision: 0
# Processed by: cddbd v1.5PL3 Copyright (c) Steve Scherf et al.
# Submitted via: CDex 1.50
#
DISCID=4705b206
DTITLE=ミルモ＆楓 - わがまま☆フェアリー ミルモでポン！ デュエットシリーズ1 ミルモ&楓
DYEAR=2003
DGENRE=Anime
TTITLE0=Be Be Happy 〜おれがミルモだ、チョコをくれ！〜 ＜ミルモのテーマ＞
TTITLE1=笑顔の花束 ＜かえでのテーマ＞
TTITLE2=PRECIOUS MOMENT ＜ミルモ&かえでデュエット＞ ★エンディングテーマ
TTITLE3=Be Be Happy 〜おれがミルモだ、チョコをくれ！〜 (カラオケ)
TTITLE4=笑顔の花束 (カラオケ)
TTITLE5=PRECIOUS MOMENT (カラオケ)
EXTD=YEAR: 2003
EXTT0=
EXTT1=
EXTT2=
EXTT3=
EXTT4=
EXTT5=
PLAYORDER=
